# xmcd
#
# Track frame offsets: 
#        150
#        14409
#        30113
#        40853
#        53209
#        63604
#        80214
#        92484
#        100816
#        112786
#        124680
#        140960
#        156980
#        173852
#        181812
#        196641
#        207410
#
# Disc length: 3064 seconds
#
# Revision: 0
# Processed by: cddbd v1.5.2PL0 Copyright (c) Steve Scherf et al.
# Submitted via: ExactAudioCopy v1.0b1
#
DISCID=e10bf611
DTITLE=Various Artist - Bluegrass Mandolin
DYEAR=2012
DGENRE=Bluegrass
TTITLE0=Rawhide
TTITLE1=Durang's Hornpipe
TTITLE2=Black Mountain Rag
TTITLE3=Shadow Ridge
TTITLE4=It's Mighty Dark To Travel
TTITLE5=Sis Draper
TTITLE6=Stumptowne
TTITLE7=Tennessee Blues
TTITLE8=I've Heard These Words Before
TTITLE9=The Old Hometown
TTITLE10=Hyperdrive
TTITLE11=Watson's Blues
TTITLE12=In The House Of Tom Bombadil
TTITLE13=John Henry
TTITLE14=Senses
TTITLE15=Sure - Fire
TTITLE16=They're Gonna Miss Me When I'm Gone
EXTD=
EXTT0=
EXTT1=
EXTT2=
EXTT3=
EXTT4=
EXTT5=
EXTT6=
EXTT7=
EXTT8=
EXTT9=
EXTT10=
EXTT11=
EXTT12=
EXTT13=
EXTT14=
EXTT15=
EXTT16=
PLAYORDER=
